<?xml version="1.0" encoding="UTF-8"?>
<!-- Generator: visioncortex VTracer 0.6.3 -->
<svg version="1.1" xmlns="http://www.w3.org/2000/svg" width="1280" height="1280">
<path d="M0 0 C422.4 0 844.8 0 1280 0 C1280 422.4 1280 844.8 1280 1280 C857.6 1280 435.2 1280 0 1280 C0 857.6 0 435.2 0 0 Z " fill="#000102" transform="translate(0,0)"/>
<path d="M0 0 C422.4 0 844.8 0 1280 0 C1280 422.4 1280 844.8 1280 1280 C857.6 1280 435.2 1280 0 1280 C0 857.6 0 435.2 0 0 Z M498 62 C496.94 62.13 495.89 62.27 494.8 62.41 C455.93 67.43 417.15 79.07 382.81 98.01 C381.25 98.86 379.67 99.69 378.09 100.52 C364.98 107.39 352.62 115.85 341 125 C340.09 125.72 339.18 126.43 338.24 127.17 C324.36 138.32 311.1 150.58 299.99 164.51 C297.87 167.16 295.67 169.72 293.44 172.27 C292.41 173.5 291.44 174.78 290.5 176.07 C285.57 182.86 279.52 187.83 273 193 C266.63 198.15 260.38 203.37 254.33 208.89 C252.25 210.77 250.13 212.61 248 214.44 C243.9 218 240.13 221.86 236.32 225.72 C234.53 227.48 232.77 229.08 230.81 230.62 C227.83 233.15 225.44 235.86 222.92 238.83 C220.87 241.15 218.71 243.32 216.5 245.5 C213.21 248.76 210.08 252.08 207.06 255.59 C205.41 257.52 203.74 259.44 202.06 261.34 C194.75 269.68 187.73 278.19 181 287 C180.52 287.63 180.03 288.26 179.54 288.91 C172.03 298.72 164.87 308.73 158 319 C157.5 319.75 157 320.49 156.48 321.26 C139.75 346.3 124.19 372.62 112.52 400.43 C111.04 403.91 109.41 407.29 107.75 410.69 C81.71 465.51 67.83 527.88 62 588 C61.88 589.11 61.77 590.23 61.65 591.38 C58.13 625.44 58.47 660.96 62 695 C62.19 697.01 62.38 699.01 62.57 701.02 C70.58 784.11 97.41 865.72 140.37 937.28 C141.85 939.75 143.31 942.22 144.77 944.7 C156.09 963.77 169.13 981.71 183 999 C183.44 999.55 183.88 1000.1 184.33 1000.67 C188.92 1006.42 193.7 1011.94 198.67 1017.37 C200.75 1019.71 202.65 1022.11 204.57 1024.59 C211.37 1032.93 219.11 1040.41 226.74 1048 C229.37 1050.62 231.99 1053.25 234.61 1055.88 C245.79 1067.1 245.79 1067.1 257.86 1077.33 C260.11 1079.09 262.21 1080.95 264.31 1082.88 C269.73 1087.74 275.47 1092.18 281.23 1096.63 C282.89 1097.91 284.54 1099.21 286.19 1100.5 C302.5 1113.22 319.63 1124.93 337.25 1135.75 C337.96 1136.19 338.67 1136.62 339.4 1137.07 C345.16 1140.58 351.06 1143.8 357 1147 C359.07 1148.12 361.13 1149.24 363.2 1150.37 C382.56 1160.85 401.73 1170.95 422.45 1178.55 C426.29 1179.96 430.09 1181.43 433.86 1182.99 C475.34 1200 519.82 1210.11 564.12 1216.19 C565.24 1216.34 566.36 1216.5 567.51 1216.66 C571.34 1217.16 575.16 1217.6 579 1218 C579.83 1218.09 580.66 1218.18 581.51 1218.27 C599.46 1220.11 617.35 1220.34 635.37 1220.32 C638.53 1220.31 641.69 1220.32 644.85 1220.34 C714.12 1220.73 782.22 1207.42 847 1183 C848.28 1182.52 848.28 1182.52 849.58 1182.04 C858.73 1178.62 867.67 1174.91 876.48 1170.68 C879.83 1169.08 883.19 1167.54 886.56 1166 C896.14 1161.58 905.55 1157 914.53 1151.45 C917.19 1149.89 919.91 1148.53 922.69 1147.19 C955.66 1130.87 986.53 1107.29 1014.36 1083.4 C1016.01 1081.99 1017.67 1080.6 1019.33 1079.2 C1036.16 1065.03 1053.08 1049.85 1067.28 1033 C1069.08 1030.91 1070.95 1028.9 1072.83 1026.89 C1078.28 1021.06 1083.26 1014.99 1088.12 1008.68 C1090.08 1006.16 1092.08 1003.68 1094.12 1001.22 C1101.32 992.58 1107.82 983.66 1114.08 974.32 C1116.31 970.99 1118.64 967.76 1121.06 964.56 C1126.39 957.32 1130.82 949.5 1135.37 941.76 C1137.03 938.96 1138.7 936.17 1140.38 933.38 C1146.39 923.37 1152.08 913.33 1157.13 902.8 C1158.55 899.87 1160.03 896.97 1161.5 894.06 C1162.67 891.71 1163.84 889.36 1165 887 C1165.31 886.38 1165.62 885.75 1165.94 885.11 C1171.6 873.62 1176.38 861.85 1180.91 849.88 C1181.61 848.04 1182.31 846.21 1183.02 844.37 C1189.76 826.92 1194.97 809.01 1200 791 C1200.3 789.92 1200.6 788.84 1200.91 787.73 C1221.22 713.8 1223.95 634.63 1180.62 433.56 C1180.37 432.88 1180.12 432.2 1179.86 431.5 C1177.53 425.28 1175.21 419.12 1172.12 413.23 C1170.56 410.13 1169.17 406.96 1167.76 403.79 C1167.46 403.13 1167.17 402.47 1166.87 401.79 C1165.65 399.05 1164.43 396.31 1163.21 393.56 C1159.94 386.13 1156.61 378.89 1152.25 372.02 C1151.06 370.1 1150.04 368.16 1149.06 366.12 C1146.88 361.63 1144.33 357.38 1141.79 353.08 C1140.12 350.21 1138.55 347.31 1137 344.38 C1134.55 339.84 1131.77 335.68 1128.76 331.49 C1127.06 329.08 1125.49 326.63 1123.94 324.12 C1111.68 304.73 1097.78 286.43 1082.71 269.15 C1080.31 266.39 1078.03 263.55 1075.75 260.69 C1065.98 248.71 1054.9 237.81 1044 226.88 C1043.13 226 1042.26 225.12 1041.36 224.22 C1036.4 219.27 1031.31 214.56 1026 210 C1024.39 208.55 1022.79 207.09 1021.19 205.62 C1016.85 201.71 1012.38 197.98 1007.84 194.31 C1004.94 191.95 1002.1 189.54 999.25 187.12 C993.05 181.96 986.6 177.2 980.05 172.49 C977.92 170.94 975.79 169.37 973.68 167.8 C964.2 160.81 954.53 154.41 944.39 148.42 C941.91 146.95 939.45 145.45 937 143.95 C862.12 98.57 775.45 71.33 636.66 62.46 C621.34 62.31 606.12 62.11 590.88 60.44 C560.12 57.13 528.64 57.89 498 62 Z " fill="#000102" transform="translate(0,0)"/>
<path d="M0 0 C14.65 1.5 29.34 1.47 44.05 1.62 C67.23 1.85 90.23 2.22 113.25 5.14 C114.25 5.26 114.25 5.26 115.26 5.39 C196.44 15.73 275.48 42.3 369.25 100.14 C370.1 100.73 370.1 100.73 370.97 101.33 C393.2 116.88 414.21 133.85 434.25 152.14 C435.15 152.95 436.05 153.75 436.98 154.59 C444.41 161.3 451.54 168.32 458.63 175.39 C459.1 175.86 459.57 176.33 460.06 176.82 C465.68 182.41 471.12 188.09 476.25 194.14 C477.22 195.27 478.2 196.4 479.17 197.52 C481.69 200.46 484.2 203.4 486.72 206.35 C488.15 208.03 489.6 209.7 491.05 211.37 C525.87 251.74 553.91 299.07 575.22 347.82 C576.34 350.34 577.5 352.83 578.66 355.33 C612.63 429.93 625.92 514.17 588.35 783.41 C585.45 791.1 582.47 798.77 579.38 806.39 C579.03 807.24 578.69 808.09 578.33 808.96 C575.9 814.83 573.14 820.49 570.25 826.14 C569.6 827.44 568.94 828.75 568.29 830.05 C567.33 831.97 566.37 833.9 565.41 835.82 C563.69 839.24 561.98 842.68 560.31 846.13 C555.86 855.25 550.97 864.02 545.72 872.7 C544.09 875.41 542.47 878.12 540.85 880.83 C534.77 890.98 528.56 900.89 521.52 910.4 C520.12 912.31 518.77 914.25 517.43 916.2 C510.91 925.63 503.99 934.59 496.67 943.41 C494.75 945.75 492.87 948.13 491 950.51 C486.96 955.58 482.62 960.36 478.25 965.14 C476.75 966.8 475.25 968.47 473.75 970.14 C473 970.97 472.24 971.81 471.47 972.67 C470.06 974.23 468.67 975.81 467.28 977.39 C462.28 983.07 457.03 988.47 451.69 993.83 C450.98 994.54 450.27 995.25 449.54 995.99 C445.51 1000.01 441.38 1003.85 437.07 1007.57 C434.64 1009.66 432.29 1011.84 429.94 1014.01 C425.51 1018.05 420.97 1021.91 416.31 1025.67 C414.07 1027.48 411.85 1029.3 409.63 1031.13 C393.28 1044.66 375.89 1056.52 358.18 1068.2 C354.07 1070.92 349.97 1073.67 345.88 1076.42 C341.52 1079.27 336.98 1081.7 332.37 1084.13 C330.18 1085.28 328 1086.43 325.81 1087.58 C325.07 1087.97 324.32 1088.36 323.55 1088.76 C319.62 1090.84 315.78 1092.98 312 1095.33 C303.19 1100.72 293.46 1104.53 283.98 1108.6 C280.77 1109.99 277.62 1111.45 274.51 1113.06 C269.3 1115.69 263.88 1117.74 258.44 1119.83 C257.31 1120.26 256.17 1120.69 255 1121.14 C234.75 1128.81 214.13 1135.38 193.25 1141.14 C192.34 1141.39 191.44 1141.64 190.51 1141.91 C159.48 1150.49 127.28 1155.27 95.25 1158.14 C94.33 1158.22 93.4 1158.31 92.45 1158.4 C83.68 1159.15 74.94 1159.32 66.14 1159.34 C65.38 1159.34 64.63 1159.35 63.85 1159.35 C59.85 1159.36 55.84 1159.37 51.84 1159.38 C48.61 1159.38 45.37 1159.4 42.14 1159.42 C20.3 1159.57 -1.05 1158.64 -22.75 1156.14 C-24.68 1155.92 -24.68 1155.92 -26.64 1155.7 C-76.97 1149.98 -127.03 1136.92 -173.62 1117.03 C-176.4 1115.87 -179.23 1114.85 -182.06 1113.83 C-200.43 1106.82 -217.86 1097.14 -235.03 1087.64 C-237.81 1086.11 -240.6 1084.6 -243.39 1083.09 C-248.24 1080.45 -252.98 1077.66 -257.69 1074.76 C-258.86 1074.04 -258.86 1074.04 -260.05 1073.31 C-266.38 1069.4 -272.62 1065.37 -278.75 1061.14 C-279.49 1060.63 -280.23 1060.12 -280.99 1059.59 C-291.46 1052.37 -301.78 1045.04 -311.75 1037.14 C-312.62 1036.45 -313.48 1035.77 -314.37 1035.06 C-316.84 1033.1 -319.3 1031.12 -321.75 1029.14 C-322.63 1028.43 -323.52 1027.72 -324.43 1026.99 C-330.11 1022.4 -335.58 1017.65 -340.95 1012.69 C-343.08 1010.75 -345.23 1008.86 -347.42 1006.98 C-351.73 1003.2 -355.82 999.23 -359.87 995.18 C-360.61 994.44 -361.36 993.7 -362.13 992.94 C-363.69 991.38 -365.25 989.82 -366.81 988.26 C-369.17 985.9 -371.54 983.55 -373.91 981.2 C-380.95 974.19 -387.86 967.24 -393.97 959.39 C-395.92 956.93 -397.99 954.63 -400.12 952.33 C-405.15 946.79 -409.72 940.96 -414.28 935.04 C-415.74 933.15 -417.22 931.28 -418.71 929.41 C-432.39 912.04 -444.78 893.33 -455.75 874.14 C-456.09 873.55 -456.43 872.96 -456.79 872.35 C-482.73 827.52 -502.09 780.06 -515.75 730.14 C-516.03 729.11 -516.32 728.09 -516.61 727.03 C-524.57 697.93 -529.53 668.09 -532.38 638.08 C-532.61 635.62 -532.85 633.17 -533.1 630.72 C-536.6 596.68 -536.32 561.16 -532.75 527.14 C-532.56 525.23 -532.56 525.23 -532.38 523.28 C-526.53 463.17 -510.54 404.57 -486.75 349.14 C-486.36 348.21 -485.97 347.29 -485.57 346.34 C-480.95 335.42 -475.64 324.96 -470.02 314.52 C-468.76 312.17 -467.53 309.8 -466.31 307.42 C-458.07 291.42 -448.94 275.98 -438.75 261.14 C-437.77 259.69 -436.8 258.24 -435.83 256.79 C-428.51 245.93 -420.83 235.43 -412.75 225.14 C-412.02 224.21 -411.29 223.27 -410.54 222.31 C-405.11 215.45 -399.44 208.79 -393.75 202.14 C-393.14 201.43 -392.54 200.72 -391.91 199.99 C-384.65 191.59 -377.12 183.38 -369.19 175.61 C-367.81 174.2 -366.56 172.67 -365.31 171.14 C-362.73 168.11 -360 165.68 -356.98 163.11 C-354.52 160.93 -352.23 158.62 -349.94 156.26 C-345.68 151.95 -341.19 148.13 -336.46 144.35 C-333.84 142.21 -331.36 139.99 -328.87 137.7 C-325.09 134.24 -321.16 131.14 -317.06 128.08 C-309.85 122.65 -304.72 116.49 -299.41 109.27 C-296.77 105.88 -293.86 102.74 -290.96 99.56 C-289.09 97.52 -287.29 95.44 -285.5 93.33 C-277.08 83.69 -267.85 74.99 -257.75 67.14 C-256.8 66.37 -255.85 65.61 -254.88 64.82 C-206.89 26.73 -148.79 8.02 -88.75 0.14 C-87.77 0 -86.79 -0.13 -85.78 -0.27 C-57.71 -3.98 -28.07 -3.08 0 0 Z M-156.12 64.83 C-157.29 65.26 -158.46 65.7 -159.67 66.16 C-167.53 69.16 -175.15 72.54 -182.75 76.14 C-184.22 76.82 -185.7 77.51 -187.18 78.19 C-191.38 80.15 -195.57 82.14 -199.75 84.14 C-200.37 84.43 -200.99 84.73 -201.63 85.03 C-210.49 89.27 -219.12 93.91 -227.71 98.65 C-229.44 99.61 -231.18 100.56 -232.91 101.51 C-240.45 105.7 -247.64 110.25 -254.75 115.14 C-255.49 115.64 -256.23 116.15 -256.99 116.67 C-258.92 117.99 -260.83 119.31 -262.75 120.64 C-268.48 124.6 -274.26 128.49 -280.1 132.29 C-286.2 136.55 -290.18 140.7 -294.31 146.83 C-295.37 148.35 -296.42 149.88 -297.48 151.4 C-298.02 152.19 -298.55 152.97 -299.11 153.78 C-301.75 157.58 -304.47 161.33 -307.19 165.08 C-307.73 165.82 -308.27 166.57 -308.82 167.34 C-311.54 171.1 -314.27 174.85 -317 178.61 C-324.25 188.57 -331.27 198.66 -338.19 208.85 C-339.71 211.08 -341.23 213.29 -342.77 215.51 C-343.25 216.2 -343.73 216.9 -344.23 217.62 C-345.11 218.9 -346 220.17 -346.88 221.45 C-349.37 225.05 -351.75 228.7 -354.09 232.4 C-357.75 238.17 -361.56 243.84 -365.37 249.51 C-370.69 257.45 -375.91 265.45 -380.94 273.58 C-381.45 274.41 -381.97 275.24 -382.5 276.1 C-385.33 280.7 -388.01 285.37 -390.61 290.1 C-392.13 292.82 -393.77 295.45 -395.44 298.08 C-399.96 305.39 -404.14 312.86 -408.26 320.4 C-409.3 322.32 -410.35 324.23 -411.4 326.13 C-426.73 353.95 -440.29 382.51 -451.75 412.14 C-452.08 412.98 -452.4 413.82 -452.74 414.68 C-468.6 455.53 -479.44 498.5 -483.75 542.14 C-483.85 543.07 -483.95 544.01 -484.06 544.97 C-492.01 619 -478.41 695.98 -450.72 764.73 C-450.04 766.43 -449.36 768.13 -448.68 769.83 C-444.15 781.21 -439.4 792.27 -433.75 803.14 C-432.73 805.17 -431.73 807.2 -430.72 809.24 C-427.22 816.3 -423.63 823.28 -419.75 830.14 C-419.37 830.81 -418.99 831.49 -418.6 832.18 C-412.44 843.06 -405.99 853.7 -399.08 864.12 C-397.77 866.1 -396.48 868.09 -395.19 870.08 C-390.11 877.84 -384.73 885.26 -379 892.55 C-377.74 894.15 -376.51 895.76 -375.28 897.38 C-369.82 904.59 -364.14 911.56 -358.23 918.41 C-356.67 920.23 -355.13 922.05 -353.59 923.87 C-347.91 930.53 -342.11 936.94 -335.85 943.07 C-333.14 945.72 -330.57 948.42 -328.12 951.33 C-324.79 955.25 -321.02 958.59 -317.15 961.99 C-315.12 963.81 -313.21 965.67 -311.31 967.64 C-307.73 971.28 -303.8 974.43 -299.82 977.63 C-297.1 979.85 -294.44 982.13 -291.8 984.44 C-285.04 990.33 -278.05 995.78 -270.84 1001.1 C-268.18 1003.06 -265.56 1005.06 -262.98 1007.11 C-250.59 1016.92 -237.38 1025.45 -224.1 1033.98 C-221.26 1035.81 -218.43 1037.65 -215.61 1039.49 C-202.39 1048.07 -188.61 1055.65 -174.75 1063.14 C-173.74 1063.69 -172.73 1064.23 -171.68 1064.8 C-101.56 1102.51 -20.99 1128.94 59.25 1130.14 C60.43 1130.16 61.6 1130.18 62.82 1130.2 C159.88 1131.65 248.24 1101.71 348.34 1027.65 C351.1 1025.27 353.91 1022.98 356.75 1020.7 C362.63 1015.92 368.14 1010.78 373.67 1005.61 C376.04 1003.4 378.46 1001.24 380.88 999.08 C386.41 994.01 391.75 988.75 397.06 983.45 C398.26 982.26 398.26 982.26 399.49 981.04 C403.71 976.8 407.78 972.49 411.68 967.95 C413.93 965.35 416.28 962.84 418.63 960.33 C423.74 954.78 428.53 949.02 433.25 943.14 C434.28 941.87 435.31 940.61 436.35 939.35 C447 926.33 457.16 913.08 466.76 899.28 C468.19 897.22 469.63 895.18 471.07 893.13 C477.45 884.02 483.3 874.65 489.04 865.12 C490.68 862.44 492.36 859.78 494.06 857.14 C498.9 849.56 503.42 842 507.37 833.92 C509.03 830.54 510.74 827.2 512.53 823.9 C543.22 767.23 561.41 703.19 567.25 639.14 C567.33 638.29 567.42 637.44 567.5 636.56 C568.21 628.9 568.43 621.3 568.45 613.61 C568.46 611.7 568.46 611.7 568.47 609.76 C568.48 607.07 568.49 604.39 568.49 601.71 C568.5 597.7 568.53 593.7 568.56 589.7 C568.74 545.25 561.42 500.3 547.25 458.14 C546.66 456.38 546.66 456.38 546.06 454.59 C537.83 430.23 528 406.7 516.88 383.51 C516.59 382.91 516.3 382.3 516 381.68 C512.79 375 509.42 368.53 505.53 362.22 C504.06 359.82 502.7 357.37 501.38 354.89 C486.74 327.91 469.63 302.68 451.25 278.14 C450.55 277.2 450.55 277.2 449.83 276.24 C444.33 268.92 438.56 261.86 432.6 254.92 C430.25 252.14 430.25 252.14 428.56 249.77 C428.13 249.23 427.7 248.69 427.25 248.14 C426.59 248.14 425.93 248.14 425.25 248.14 C425 247.58 424.76 247.03 424.5 246.46 C420.23 238.53 413.24 231.91 406.81 225.72 C404.8 223.69 402.95 221.66 401.1 219.5 C396.58 214.28 391.7 209.44 386.81 204.58 C385.91 203.67 385.01 202.76 384.08 201.83 C379.53 197.29 374.93 192.88 370.05 188.7 C367.28 186.3 364.62 183.77 361.94 181.26 C357.12 176.78 352.18 172.52 347.04 168.4 C344.55 166.38 342.1 164.3 339.67 162.21 C332.44 155.99 324.91 150.25 317.24 144.6 C315.34 143.21 313.45 141.8 311.57 140.39 C290.27 124.56 268.01 109.19 244.68 96.48 C242.17 95.1 239.68 93.68 237.2 92.25 C234.22 90.54 231.24 88.84 228.25 87.14 C227.39 86.64 226.53 86.15 225.65 85.64 C218.69 81.74 211.5 78.36 204.29 74.96 C198.8 72.37 193.35 69.7 187.94 66.95 C180.78 63.33 173.5 60.08 166.12 56.94 C164.39 56.2 162.67 55.44 160.94 54.68 C157.39 53.13 153.83 51.62 150.25 50.14 C149.11 49.66 149.11 49.66 147.95 49.18 C136.1 44.29 124.09 39.94 111.92 35.94 C110.46 35.45 108.99 34.97 107.52 34.48 C105.44 33.78 103.34 33.1 101.25 32.42 C100.04 32.03 98.84 31.64 97.6 31.23 C86.72 28.22 75.56 27.83 64.35 27.84 C62.95 27.83 61.54 27.83 60.14 27.82 C57.2 27.82 54.26 27.82 51.33 27.82 C48.39 27.83 45.46 27.82 42.52 27.8 C-25.69 27.38 -92.41 40.85 -156.12 64.83 Z " fill="#FAFBFC" transform="translate(594.74951171875,60.862060546875)"/>
<path d="M0 0 C1.38 2.56 1.38 2.56 2 5 C-1.59 9.16 -5.23 13.27 -8.97 17.3 C-13.74 22.45 -18.3 27.7 -22.7 33.18 C-24.73 35.66 -26.79 38.1 -28.88 40.53 C-35.36 48.08 -41.41 55.93 -47.39 63.87 C-48.92 65.9 -50.46 67.92 -52 69.94 C-59.36 79.63 -66.37 89.54 -73.3 99.55 C-74.97 101.96 -76.65 104.36 -78.33 106.76 C-79.35 108.21 -80.36 109.67 -81.38 111.12 C-81.85 111.79 -82.32 112.46 -82.8 113.15 C-85.2 116.28 -85.2 116.28 -86 120 C-84.49 121.32 -84.49 121.32 -82.48 122.62 C-81.33 123.39 -81.33 123.39 -80.16 124.19 C-79.32 124.74 -78.49 125.3 -77.62 125.88 C-76.76 126.45 -75.9 127.03 -75.02 127.63 C-73.22 128.84 -71.42 130.04 -69.62 131.24 C-67.23 132.85 -64.85 134.47 -62.47 136.11 C-52.08 143.2 -41.38 149.59 -30.38 155.68 C-28.3 156.84 -26.22 158.01 -24.14 159.18 C-0.83 172.19 25.52 182.87 52 187 C52.05 186.21 52.1 185.42 52.15 184.61 C52.55 178.59 53.02 172.6 53.69 166.62 C54.56 158.86 55.25 151.11 55.75 143.32 C55.8 142.43 55.86 141.55 55.92 140.64 C56.16 137.02 56.39 133.4 56.6 129.78 C56.76 127.08 56.94 124.39 57.12 121.69 C57.16 120.87 57.21 120.06 57.25 119.22 C57.55 114.99 57.81 111.97 61 109 C64.96 107.68 67.82 107.73 72 108 C75.13 112.7 74.38 117.53 74.38 123.06 C74.38 124.31 74.38 125.55 74.38 126.84 C74.22 147.53 72.05 168.53 69 189 C72.62 190.62 75.69 191.32 79.65 191.6 C80.74 191.68 81.83 191.76 82.95 191.84 C84.08 191.91 85.21 191.99 86.38 192.06 C87.47 192.14 88.56 192.22 89.68 192.3 C91.96 192.46 94.23 192.61 96.51 192.76 C98.76 192.92 101 193.09 103.25 193.28 C116.13 194.32 129.02 194.11 141.94 194.06 C144.37 194.06 146.81 194.05 149.25 194.05 C155.17 194.04 161.08 194.02 167 194 C167 193.37 166.99 192.74 166.99 192.08 C166.94 185.51 166.91 178.94 166.89 172.38 C166.88 169.92 166.87 167.47 166.85 165.02 C166.82 161.49 166.81 157.97 166.8 154.45 C166.79 153.35 166.78 152.25 166.77 151.12 C166.77 150.09 166.77 149.07 166.77 148.02 C166.77 147.12 166.76 146.22 166.76 145.3 C167 143 167 143 169 140 C173.62 137.85 177.07 137.77 182 139 C184.14 142.22 184.26 143.12 184.3 146.82 C184.32 147.8 184.34 148.78 184.35 149.79 C184.37 151.36 184.37 151.36 184.38 152.98 C184.4 154.06 184.41 155.14 184.43 156.25 C184.48 159.71 184.52 163.17 184.56 166.62 C184.61 170.09 184.65 173.55 184.71 177.02 C184.74 179.18 184.76 181.33 184.79 183.49 C184.8 184.46 184.81 185.44 184.83 186.44 C184.84 187.3 184.85 188.15 184.86 189.04 C184.79 191 184.79 191 186 192 C195.89 191.77 205.81 190.44 215.62 189.25 C216.33 189.17 217.03 189.08 217.75 188.99 C231.48 187.34 245.04 185.03 258.61 182.4 C261 182 261 182 264 182 C263.75 181.15 263.49 180.29 263.23 179.41 C257.69 159.29 250.54 126.1 259 106 C263.43 102.87 267.64 102.37 273 103 C275.37 106.56 275.2 107.92 275.09 112.12 C275.07 113.38 275.05 114.63 275.02 115.92 C275.01 116.58 274.99 117.25 274.98 117.93 C274.75 129.27 275.03 140.41 276.31 151.69 C276.49 153.29 276.49 153.29 276.67 154.92 C277.55 162.11 279.1 169.01 281 176 C284.64 177.29 287.14 176.71 290.84 175.77 C292.62 175.32 292.62 175.32 294.45 174.85 C295.76 174.51 297.07 174.16 298.38 173.81 C299.04 173.64 299.71 173.46 300.39 173.29 C312.49 170.12 324.45 166.51 336.38 162.75 C337.19 162.49 338.01 162.24 338.85 161.98 C347.1 159.38 355.19 156.77 363 153 C362.76 152.18 362.52 151.37 362.27 150.53 C357.31 133 354.4 115.22 354 97 C353.97 95.89 353.94 94.79 353.91 93.64 C353.7 76.91 353.7 76.91 356 70 C360.78 67.42 364.47 66.35 370 67 C372.41 70.62 372.2 72.13 372.09 76.41 C372.06 78.37 372.06 78.37 372.02 80.37 C372.01 81.07 371.99 81.76 371.98 82.47 C370.79 115.54 370.79 115.54 381 146 C395.22 142.66 408.87 135.34 422.12 129.31 C422.84 128.99 423.55 128.67 424.28 128.33 C432.26 124.7 440.2 121.01 448 117 C445.59 109.5 442.83 102.15 440.05 94.79 C436.07 84.29 432.18 73.78 428.6 63.14 C425.94 55.44 422.59 48.04 419.11 40.69 C415.18 32.09 415.18 32.09 417 27 C418.82 24.73 420.28 24.16 423.09 23.54 C425.64 23.29 427.53 23.32 430 24 C432.42 26.3 433.65 28.98 435 32 C435.32 32.67 435.64 33.35 435.98 34.04 C436.63 35.45 437.25 36.87 437.85 38.29 C438.67 40.22 439.5 42.13 440.34 44.04 C443.94 52.26 447.03 60.55 449.88 69.06 C450.74 71.59 451.6 74.12 452.47 76.65 C452.89 77.88 453.32 79.12 453.75 80.39 C455.58 85.68 457.44 90.94 459.38 96.19 C459.68 97.06 459.99 97.93 460.31 98.83 C460.61 99.62 460.91 100.41 461.21 101.23 C461.46 101.92 461.71 102.6 461.97 103.31 C463.34 105.56 464.5 106.21 467 107 C468.91 106.58 468.91 106.58 470.74 105.46 C471.83 104.88 471.83 104.88 472.94 104.28 C473.72 103.84 474.51 103.39 475.31 102.94 C476.13 102.49 476.96 102.04 477.8 101.58 C480.54 100.07 483.27 98.53 486 97 C488.02 95.88 490.03 94.76 492.05 93.64 C494.08 92.51 496.1 91.38 498.12 90.25 C499.54 89.46 499.54 89.46 500.99 88.64 C506.14 85.73 511.11 82.67 515.96 79.28 C521.14 76.04 526.89 74.4 533 75 C533.66 75.33 534.32 75.66 535 76 C535 76.66 535 77.32 535 78 C530.35 81.45 525.26 84.12 520.19 86.88 C513.06 90.77 513.06 90.77 506.25 95.19 C501.77 98.3 496.96 100.6 492.06 102.99 C487.2 105.37 482.41 107.91 477.62 110.44 C476.77 110.89 475.92 111.34 475.05 111.8 C473.03 112.87 471.01 113.93 469 115 C469.54 120.4 471.44 124.33 474 129 C474.4 129.74 474.8 130.49 475.22 131.25 C480.96 141.74 487.24 151.51 495.05 160.6 C496.97 162.96 498.5 165.36 500 168 C496.65 172.09 494.22 173.59 489.16 174.35 C481.04 173.04 475.62 164.17 471 158 C463.61 147.59 457.79 136.36 452 125 C447.38 125.59 443.75 127.57 439.75 129.81 C428.96 135.82 417.57 140.24 406.12 144.85 C399.71 147.44 393.38 150.14 387.12 153.1 C385 154 385 154 383 154 C390.01 180.22 407.76 202.51 427 221 C421.21 226.95 421.21 226.95 417.84 227.1 C416.62 227.08 416.62 227.08 415.38 227.06 C414.56 227.05 413.74 227.04 412.9 227.04 C411.96 227.02 411.96 227.02 411 227 C411 226.34 411 225.68 411 225 C410.45 224.78 409.91 224.56 409.35 224.33 C388.14 212.33 374.92 183.29 366 162 C361.83 162.73 357.93 163.93 353.92 165.26 C352.51 165.72 351.1 166.18 349.69 166.64 C348.95 166.89 348.22 167.13 347.46 167.38 C328.19 173.71 308.89 179.89 289.07 184.27 C286.11 184.85 286.11 184.85 284 186 C285.23 192.21 286.91 198.07 289.12 204 C289.58 205.22 289.58 205.22 290.04 206.46 C292.22 212.22 294.64 217.86 297.25 223.44 C297.58 224.14 297.91 224.84 298.25 225.57 C299.89 229 301.67 232.01 304 235 C304.94 236.67 305.86 238.36 306.75 240.06 C309.45 245.14 312.5 249.87 315.78 254.59 C317 257 317 257 316.79 259.21 C315.61 261.89 314.65 262.67 312 264 C308.78 264.81 306.22 264.86 303 264 C286.72 252.9 276.97 222.83 270.44 205.06 C270.09 204.12 269.74 203.18 269.39 202.21 C267.95 198.17 267 195.35 267 191 C263.14 189.71 260.18 190.53 256.29 191.29 C254.67 191.6 253.06 191.9 251.44 192.2 C250.15 192.44 250.15 192.44 248.84 192.69 C227.99 196.61 207.13 199.1 186 201 C184.92 205.25 184.99 209.23 185.23 213.56 C185.27 214.3 185.31 215.03 185.35 215.79 C185.47 218.19 185.61 220.6 185.75 223 C185.82 224.24 185.82 224.24 185.89 225.5 C186.77 241.06 188.11 256.53 190 272 C190.14 273.14 190.27 274.28 190.41 275.46 C192.28 290.74 195.04 305.66 198.63 320.61 C200.17 327.09 201.46 333.36 202 340 C198.7 342.58 196.57 343.93 192.38 344.44 C188.74 343.97 187.63 343.43 185 341 C184.09 339 184.09 339 183.51 336.65 C183.28 335.75 183.05 334.86 182.82 333.93 C182.59 332.94 182.36 331.96 182.12 330.94 C181.87 329.89 181.62 328.85 181.37 327.77 C172.56 289.86 168.39 251.18 167.34 212.31 C167.29 210.7 167.29 210.7 167.25 209.05 C167.22 208.1 167.2 207.15 167.17 206.16 C167.24 204.02 167.24 204.02 166 203 C164.66 202.91 163.31 202.89 161.97 202.9 C160.68 202.91 160.68 202.91 159.36 202.91 C158.42 202.92 157.47 202.93 156.5 202.94 C154.49 202.95 152.48 202.95 150.47 202.96 C149.41 202.97 148.36 202.98 147.27 202.98 C120.7 203.13 94.48 202.23 68 200 C66.62 205.26 65.51 210.46 64.72 215.84 C64.61 216.58 64.49 217.32 64.38 218.08 C64.01 220.51 63.65 222.94 63.29 225.37 C63.03 227.09 62.77 228.81 62.51 230.53 C61.97 234.14 61.43 237.75 60.89 241.35 C60.21 245.9 59.52 250.45 58.84 254.99 C58.17 259.41 57.51 263.82 56.85 268.24 C56.72 269.1 56.59 269.97 56.46 270.85 C55.19 279.29 53.98 287.71 53.13 296.19 C52.95 298.01 52.95 298.01 52.76 299.86 C52.55 302.04 52.36 304.23 52.2 306.41 C51.76 311.07 51.51 313.36 48.54 317.11 C44.74 319.94 42.73 320.28 38 320 C35.69 319.25 35.69 319.25 34 318 C32.51 314.26 33.22 310.75 33.71 306.84 C33.81 306.11 33.9 305.39 33.99 304.64 C34.3 302.22 34.62 299.8 34.94 297.38 C35.1 296.12 35.1 296.12 35.27 294.83 C37.54 277.38 40.3 260.01 43.14 242.65 C44.74 232.9 46.31 223.16 47.74 213.38 C47.93 212.09 47.93 212.09 48.13 210.78 C48.75 206.48 49.14 202.36 49 198 C45.13 196.64 41.37 195.59 37.34 194.84 C6.3 188.79 -24.05 178.95 -51.04 162.18 C-53.13 160.92 -55.25 159.76 -57.4 158.6 C-62.27 155.92 -66.81 152.85 -71.38 149.69 C-72.2 149.12 -73.03 148.55 -73.88 147.97 C-79.28 144.24 -84.59 140.41 -89.77 136.39 C-92.22 134.86 -94.18 134.49 -97 134 C-97.48 134.72 -97.96 135.45 -98.46 136.19 C-99.14 137.21 -99.82 138.23 -100.52 139.27 C-100.88 139.82 -101.25 140.37 -101.63 140.94 C-103.67 144 -105.71 147.06 -107.75 150.12 C-111.3 155.45 -114.86 160.79 -118.41 166.13 C-124.98 176.02 -131.62 185.86 -138.37 195.63 C-139.47 197.24 -140.58 198.85 -141.68 200.46 C-143.3 202.83 -144.93 205.2 -146.56 207.56 C-147.3 208.64 -147.3 208.64 -148.04 209.75 C-148.5 210.41 -148.97 211.07 -149.44 211.75 C-150.04 212.63 -150.04 212.63 -150.65 213.51 C-152.75 215.83 -154.92 216.94 -158.04 217.12 C-163.56 216.46 -163.56 216.46 -166 213.94 C-166.5 212.98 -166.5 212.98 -167 212 C-164.37 206.43 -161.47 201.59 -157.75 196.69 C-156.77 195.38 -155.8 194.07 -154.82 192.76 C-154.35 192.13 -153.87 191.49 -153.38 190.83 C-151.42 188.23 -149.49 185.62 -147.56 183 C-146.97 182.2 -146.37 181.39 -145.75 180.56 C-144.09 178.13 -142.66 175.62 -141.22 173.05 C-138.61 168.66 -135.64 164.51 -132.75 160.31 C-131.4 158.34 -130.05 156.37 -128.7 154.4 C-127.74 153 -127.74 153 -126.75 151.56 C-123.45 146.74 -120.23 141.87 -117 137 C-115.5 134.75 -114 132.5 -112.5 130.25 C-111.83 129.24 -111.16 128.24 -110.47 127.2 C-109.98 126.48 -109.5 125.75 -109 125 C-110.44 121.63 -112.17 119.7 -114.94 117.31 C-116.15 116.26 -116.15 116.26 -117.39 115.2 C-120.91 112.23 -124.47 109.32 -128.05 106.42 C-131.79 103.35 -135.47 100.22 -139.16 97.09 C-142.61 94.16 -146.1 91.28 -149.62 88.44 C-154.33 84.61 -158.79 80.57 -163.25 76.46 C-165.92 74.07 -168.65 71.81 -171.44 69.56 C-175.37 66.39 -179.13 63.08 -182.81 59.62 C-188.21 54.58 -193.92 50.01 -199.77 45.51 C-202.92 43.09 -205.96 40.56 -209 38 C-208 35 -208 35 -205.93 33.8 C-205.06 33.45 -204.2 33.11 -203.31 32.75 C-202.04 32.22 -202.04 32.22 -200.74 31.67 C-197.37 30.85 -195.33 31.03 -192 32 C-189.61 33.75 -189.61 33.75 -187.31 36 C-183.9 39.23 -180.47 42.31 -176.81 45.25 C-172.29 48.91 -167.88 52.68 -163.5 56.5 C-158.34 61 -153.11 65.4 -147.79 69.71 C-144.61 72.32 -141.49 75 -138.38 77.69 C-119.68 95.86 -119.68 95.86 -98 109 C-97.31 107.95 -96.63 106.9 -95.92 105.82 C-95.01 104.45 -94.1 103.07 -93.19 101.69 C-92.51 100.65 -92.51 100.65 -91.82 99.6 C-91.38 98.93 -90.94 98.26 -90.48 97.57 C-90.08 96.96 -89.67 96.35 -89.26 95.72 C-88 94 -88 94 -86.46 92.48 C-84.55 90.54 -83.43 88.28 -82.12 85.91 C-80.18 82.6 -77.83 79.61 -75.5 76.56 C-74.43 75.15 -73.36 73.74 -72.29 72.32 C-71.47 71.25 -71.47 71.25 -70.63 70.15 C-68.55 67.41 -66.49 64.64 -64.43 61.88 C-56.37 51.07 -48.3 40.33 -39.16 30.4 C-36.96 27.96 -34.92 25.44 -32.88 22.88 C-28.85 17.93 -24.66 13.15 -20.38 8.44 C-19.75 7.73 -19.13 7.03 -18.49 6.31 C-13.3 0.68 -7.91 -2.76 0 0 Z " fill="#FAFBFC" transform="translate(499,682)"/>
<path d="M0 0 C34.52 7.02 67.96 18.64 100.02 33.11 C101.69 33.86 103.36 34.6 105.02 35.34 C117.64 40.96 129.91 47.34 142 54 C142.61 54.34 143.23 54.67 143.86 55.02 C171.84 70.39 198.53 88.49 223 109 C224.79 110.44 226.58 111.88 228.38 113.31 C233.17 117.23 237.72 121.35 242.23 125.58 C244.99 128.16 247.77 130.67 250.64 133.12 C255.81 137.63 260.63 142.49 265.47 147.34 C267.06 148.93 268.65 150.52 270.24 152.11 C275.71 157.57 281.01 163.1 286 169 C286.95 170.09 287.9 171.19 288.85 172.28 C301.29 186.69 313.07 201.41 324 217 C324.8 218.14 324.8 218.14 325.62 219.31 C338.76 238.03 350.54 257.49 361.61 277.5 C362.77 279.59 363.95 281.68 365.14 283.77 C375.36 302.19 383.61 322.09 391.14 341.75 C391.97 343.93 392.83 346.09 393.69 348.25 C412.3 395.97 422.52 448.04 426 499 C426.13 500.92 426.13 500.92 426.27 502.88 C427.03 514.86 427.2 526.81 427.19 538.81 C427.19 540.29 427.19 540.29 427.19 541.79 C427.17 558.28 426.54 574.58 425 591 C424.82 593.22 424.63 595.43 424.45 597.65 C419.15 656.77 402.65 716.29 377.05 769.79 C375.84 772.33 374.65 774.87 373.46 777.42 C367.76 789.56 361.76 801.42 355 813 C354.52 813.82 354.05 814.63 353.56 815.47 C337.28 843.25 318.66 869.31 298 894 C297.49 894.61 296.98 895.22 296.46 895.85 C284.84 909.77 272.29 922.79 259.5 935.62 C258.68 936.45 257.85 937.28 257 938.14 C252.71 942.42 248.33 946.55 243.73 950.51 C241.57 952.37 239.47 954.31 237.38 956.25 C231.75 961.33 225.81 965.95 219.81 970.59 C218.03 971.98 216.25 973.38 214.48 974.79 C213.9 975.26 213.32 975.72 212.71 976.2 C211.12 977.47 209.53 978.74 207.94 980 C197.05 988.42 185.59 996.03 174.12 1003.62 C172.74 1004.54 171.36 1005.46 169.98 1006.38 C166.66 1008.59 163.33 1010.8 160 1013 C159.34 1012.67 158.68 1012.34 158 1012 C158.7 1011.52 159.4 1011.04 160.12 1010.54 C161.03 1009.91 161.94 1009.28 162.88 1008.62 C164.23 1007.69 164.23 1007.69 165.62 1006.73 C168.03 1005.07 168.03 1005.07 170 1003 C171.32 1002.3 172.65 1001.63 174 1001 C174 1000.34 174 999.68 174 999 C174.99 998.67 175.98 998.34 177 998 C178.69 996.36 180.35 994.69 182 993 C184.17 991.04 186.4 989.14 188.62 987.25 C189.24 986.73 189.85 986.2 190.48 985.66 C194.23 982.47 198.03 979.34 201.88 976.25 C205.79 973.08 209.39 969.77 212.86 966.12 C214.65 964.35 216.47 962.73 218.39 961.1 C224.11 956.13 229.41 950.74 234.75 945.38 C236.56 943.57 238.37 941.76 240.18 939.96 C246 934.14 251.67 928.28 257 922 C258.62 920.22 260.24 918.45 261.88 916.69 C265.97 912.2 269.85 907.59 273.67 902.86 C275.71 900.36 277.78 897.91 279.89 895.46 C286.46 887.81 292.56 879.83 298.64 871.78 C300.39 869.49 302.2 867.25 304 865 C309.98 857.18 315.39 849 320.81 840.79 C324.26 835.57 327.79 830.42 331.43 825.33 C333.65 822.03 335.48 818.56 337.34 815.04 C339.27 811.5 341.34 808.07 343.44 804.62 C346.89 798.93 350.16 793.17 353.27 787.27 C354.44 785.06 355.64 782.85 356.86 780.66 C363.07 769.48 368.03 757.78 373 746 C373.47 744.89 373.94 743.78 374.43 742.63 C375.19 740.82 375.94 739 376.68 737.18 C377.73 734.66 378.81 732.16 379.91 729.66 C399.09 685.42 408.94 636.83 413 589 C413.1 587.94 413.19 586.88 413.29 585.79 C414.17 575.13 414.2 564.49 414.19 553.81 C414.19 552.84 414.19 551.87 414.19 550.87 C414.08 486.73 402.07 414.92 371.74 357.45 C369.78 353.56 368 349.61 366.22 345.63 C361.09 334.22 355.51 323.22 349.32 312.35 C347.89 309.81 346.52 307.25 345.14 304.69 C332.39 281.27 317.19 259.15 301 238 C299.5 235.98 298 233.96 296.5 231.94 C292.16 226.15 287.64 220.55 283 215 C282.57 214.48 282.14 213.97 281.69 213.43 C276.03 206.64 270.24 199.99 264.26 193.47 C262.35 191.38 260.48 189.27 258.62 187.12 C249.86 177.1 240.65 167.55 231.25 158.12 C230.75 157.63 230.26 157.13 229.75 156.62 C224.57 151.42 219.36 146.32 213.79 141.54 C210.96 139.1 208.23 136.55 205.5 134 C192.25 121.74 178.31 110.43 163.94 99.53 C160.24 96.72 156.59 93.88 153 90.94 C132.31 74.3 109.31 60.1 86.55 46.52 C84.29 45.17 82.04 43.81 79.8 42.43 C61.32 31.21 41.76 21.73 22.31 12.31 C21.13 11.74 19.94 11.16 18.72 10.57 C12.23 7.45 5.72 4.55 -1 2 C-0.67 1.34 -0.34 0.68 0 0 Z " fill="#000102" transform="translate(766,103)"/>
<path d="M0 0 C0.66 0 1.32 0 2 0 C0.53 3.26 -1.33 5.76 -3.62 8.5 C-8.16 14.09 -12.07 19.98 -16 26 C-17.46 28.19 -18.91 30.38 -20.38 32.56 C-21.22 33.83 -22.06 35.09 -22.9 36.35 C-24.98 39.47 -27.06 42.58 -29.15 45.7 C-37.63 58.35 -46.07 71 -54 84 C-54.91 85.48 -55.82 86.96 -56.73 88.44 C-59.5 92.95 -62.25 97.47 -65 102 C-65.39 102.63 -65.77 103.26 -66.17 103.92 C-80.46 127.41 -93.99 151.44 -106.08 176.15 C-107.02 178.05 -107.98 179.94 -108.95 181.83 C-127.16 217.6 -142 255.4 -153 294 C-153.3 295.05 -153.6 296.09 -153.9 297.17 C-161.69 324.87 -167.36 353.34 -170 382 C-170.1 383.03 -170.2 384.05 -170.31 385.11 C-174.16 424.82 -172.36 464.8 -165 504 C-164.83 504.95 -164.66 505.89 -164.48 506.87 C-153.39 567.09 -129.81 625.82 -98 678 C-97.62 678.63 -97.24 679.26 -96.86 679.9 C-86.38 697.31 -74.71 714.15 -62 730 C-61.51 730.61 -61.02 731.23 -60.51 731.86 C-49.63 745.46 -38.4 758.66 -26.44 771.34 C-24.24 773.67 -22.06 776.03 -19.9 778.41 C-13.89 785.07 -7.62 791.26 -0.97 797.28 C1.53 799.55 3.94 801.9 6.31 804.31 C10.04 808.09 13.97 811.55 18 815 C19.04 815.91 20.08 816.81 21.12 817.72 C29.22 824.74 37.49 831.48 46 838 C46.92 838.7 46.92 838.7 47.85 839.42 C65.18 852.69 83.12 864.96 101.64 876.52 C103.62 877.76 105.6 879.01 107.57 880.27 C128.05 893.14 149.85 903.61 171.69 913.91 C173.58 914.8 175.47 915.71 177.35 916.62 C184.63 920.09 192.08 923.11 199.56 926.12 C200.6 926.55 201.64 926.97 202.72 927.4 C209.74 930.19 216.82 932.66 224 935 C225.38 935.47 226.75 935.94 228.12 936.42 C237.52 939.66 247.01 942.51 256.56 945.25 C257.75 945.59 258.94 945.93 260.17 946.28 C266.41 948.05 272.64 949.67 279 951 C279 951.66 279 952.32 279 953 C268.81 952.54 259.04 950.26 249.12 948 C248.24 947.8 247.36 947.6 246.45 947.4 C230.34 943.74 214.64 939.34 199 934 C197.4 933.46 197.4 933.46 195.77 932.91 C161.03 921.07 125.89 905.87 94.55 886.57 C92.02 885.01 89.45 883.5 86.88 881.99 C62.23 867.41 39 850.31 17 832 C15.99 831.17 14.99 830.34 13.95 829.48 C2.99 820.37 -7.46 810.7 -17.44 800.52 C-19.1 798.84 -19.1 798.84 -21.56 797 C-24.44 794.64 -26.7 791.97 -29.11 789.14 C-31 787 -32.97 785 -35 783 C-38.88 779.16 -42.47 775.15 -46 771 C-46.42 770.51 -46.83 770.03 -47.26 769.53 C-53.01 762.81 -58.67 756.06 -64 749 C-64.43 748.43 -64.86 747.87 -65.3 747.29 C-76.01 733.16 -86.25 718.87 -95.78 703.92 C-96.86 702.23 -97.95 700.54 -99.04 698.86 C-103.01 692.73 -106.57 686.45 -110 680 C-111.12 677.92 -112.25 675.83 -113.38 673.75 C-113.96 672.66 -114.55 671.56 -115.15 670.43 C-116.4 668.11 -117.67 665.79 -118.94 663.47 C-123.79 654.62 -127.98 645.57 -131.99 636.31 C-133 634 -134.03 631.71 -135.07 629.42 C-139.45 619.75 -143.49 610.02 -147 600 C-147.36 598.99 -147.72 597.97 -148.09 596.92 C-169.25 536.52 -180.21 473.72 -180.25 409.69 C-180.25 408.58 -180.25 407.46 -180.25 406.32 C-180.22 357.8 -173.63 309.86 -161 263 C-160.76 262.11 -160.53 261.22 -160.28 260.31 C-156.52 246.3 -151.91 232.64 -147 219 C-146.68 218.11 -146.37 217.23 -146.04 216.32 C-143.09 208.06 -140.13 199.86 -136.38 191.94 C-134.89 188.76 -133.47 185.55 -132.06 182.34 C-129.27 176.01 -126.48 169.71 -123.31 163.56 C-122.32 161.62 -121.36 159.66 -120.41 157.69 C-110.6 137.34 -98.76 117.79 -85.65 99.39 C-83.99 96.98 -82.46 94.51 -80.94 92 C-73.13 79.6 -63.39 68.24 -54 57 C-53.58 56.5 -53.16 55.99 -52.73 55.48 C-44.42 45.49 -35.89 35.73 -26.6 26.64 C-24.85 24.85 -23.24 22.97 -21.62 21.06 C-12.11 10.04 -12.11 10.04 -6 8 C-6 7.34 -6 6.68 -6 6 C-4.35 4.65 -2.68 3.31 -1 2 C-0.67 1.34 -0.34 0.68 0 0 Z " fill="#000102" transform="translate(266,233)"/>
<path d="M0 0 C9.9 6.87 18.54 15.09 27.14 23.5 C28.26 24.58 29.38 25.66 30.5 26.74 C36.35 32.42 41.77 38.34 46.79 44.77 C48.45 46.9 50.13 49.01 51.81 51.12 C53.11 52.77 54.41 54.41 55.71 56.06 C56.34 56.86 56.97 57.66 57.62 58.48 C58.21 59.23 58.8 59.98 59.4 60.75 C59.93 61.43 60.46 62.1 61 62.8 C62.14 64.5 62.14 64.5 62.14 66.5 C63.13 66.5 64.12 66.5 65.14 66.5 C65.14 67.16 65.14 67.82 65.14 68.5 C65.79 68.5 66.44 68.5 67.11 68.5 C82.85 68.48 98.59 68.46 114.33 68.45 C121.94 68.44 129.55 68.44 137.16 68.42 C143.79 68.41 150.43 68.41 157.06 68.41 C160.57 68.4 164.08 68.4 167.6 68.39 C171.52 68.39 175.43 68.39 179.35 68.39 C181.11 68.38 181.11 68.38 182.9 68.38 C184.49 68.38 184.49 68.38 186.12 68.38 C187.05 68.38 187.98 68.38 188.93 68.38 C191.14 68.5 191.14 68.5 193.14 69.5 C193.14 70.16 193.14 70.82 193.14 71.5 C187.49 74.34 182.82 75.02 176.54 75.18 C175.17 75.23 175.17 75.23 173.76 75.28 C164.71 75.58 155.65 75.62 146.59 75.58 C143.71 75.56 140.83 75.56 137.94 75.55 C131.84 75.54 125.74 75.52 119.64 75.5 C112.51 75.48 105.38 75.46 98.25 75.44 C95.41 75.44 92.58 75.43 89.74 75.41 C88.01 75.41 86.28 75.41 84.55 75.4 C83.77 75.4 82.99 75.39 82.18 75.39 C78.37 75.39 74.85 75.57 71.14 76.5 C74.34 82.16 77.54 87.78 81.33 93.06 C86.41 100.16 90.94 107.6 95.57 114.99 C99.55 121.33 103.55 127.66 107.55 133.98 C108.65 135.71 109.74 137.44 110.82 139.17 C126.65 164.32 126.65 164.32 144.51 188.03 C145.05 188.85 145.59 189.66 146.14 190.5 C145.14 193.5 145.14 193.5 142.58 195.19 C138.2 196.86 135.82 197.09 131.14 196.5 C128.58 194.56 128.58 194.56 126.14 191.5 C125.66 190.91 125.17 190.33 124.67 189.73 C108.28 169.5 95.22 146.33 81.52 124.28 C76.4 116.05 71.22 107.86 66.02 99.69 C65.36 98.65 64.7 97.61 64.03 96.54 C63.38 95.53 62.74 94.52 62.07 93.48 C61.51 92.59 60.94 91.7 60.36 90.79 C59.63 89.7 58.9 88.62 58.14 87.5 C57.48 86.17 57.48 86.17 56.81 84.82 C54.04 79.97 51.97 77 46.44 75.48 C41.69 74.96 36.94 75.07 32.16 75.16 C30.33 75.15 28.49 75.14 26.66 75.12 C21.7 75.1 16.74 75.13 11.77 75.18 C6.58 75.22 1.39 75.2 -3.8 75.19 C-13.62 75.17 -23.45 75.21 -33.27 75.26 C-44.46 75.32 -55.65 75.32 -66.83 75.32 C-89.84 75.31 -112.85 75.38 -135.86 75.5 C-134.47 72.26 -134.01 71.58 -130.76 69.77 C-123.9 67.51 -116.48 68.11 -109.34 68.16 C-107.67 68.16 -105.99 68.16 -104.31 68.16 C-99.78 68.16 -95.25 68.17 -90.72 68.2 C-85.97 68.21 -81.23 68.22 -76.49 68.22 C-67.51 68.23 -58.54 68.25 -49.56 68.28 C-39.34 68.32 -29.12 68.33 -18.9 68.35 C2.11 68.38 23.13 68.43 44.14 68.5 C43.21 67.08 42.28 65.67 41.34 64.25 C40.56 63.07 40.56 63.07 39.76 61.86 C37.3 58.27 34.6 54.92 31.83 51.56 C31.26 50.87 30.69 50.17 30.1 49.46 C25.6 43.99 21.02 38.64 16.14 33.5 C15.64 32.97 15.14 32.44 14.63 31.9 C0.67 17.29 -14.46 5.09 -32.86 -3.5 C-34.22 -4.15 -34.22 -4.15 -35.62 -4.81 C-49.65 -11.08 -64.63 -14.09 -79.86 -15.5 C-80.35 -16.99 -80.35 -16.99 -80.86 -18.5 C-58.49 -32.79 -19.52 -12.97 0 0 Z " fill="#FAFBFC" transform="translate(827.85546875,384.5)"/>
<path d="M0 0 C0.99 1.49 0.99 1.49 2 3 C1.44 3.61 0.89 4.21 0.31 4.84 C-5.04 10.72 -10.11 16.73 -15 23 C-15.5 23.64 -16 24.28 -16.52 24.94 C-32.56 45.27 -32.56 45.27 -47.35 66.51 C-49.66 70.07 -52.09 73.51 -54.61 76.92 C-59.48 83.57 -64.01 90.44 -68.52 97.34 C-69.96 99.53 -71.4 101.71 -72.84 103.9 C-73.76 105.3 -74.67 106.7 -75.59 108.09 C-76.02 108.74 -76.45 109.39 -76.89 110.06 C-78.61 112.69 -80 115.01 -81 118 C-73.13 119.76 -65.26 120.76 -57.25 121.62 C-55.91 121.77 -54.58 121.91 -53.25 122.06 C-49.71 122.45 -46.17 122.83 -42.63 123.2 C-40.43 123.44 -38.22 123.68 -36.02 123.91 C-10 126.7 16.02 129 42.16 130.39 C45.2 130.55 48.25 130.72 51.29 130.89 C53.37 131 55.46 131.09 57.54 131.18 C58.76 131.24 59.99 131.31 61.25 131.38 C62.85 131.45 62.85 131.45 64.49 131.52 C65.32 131.68 66.15 131.84 67 132 C67.66 132.99 68.32 133.98 69 135 C57.24 144.97 40.21 141.13 25.47 140.21 C24.45 140.14 24.45 140.14 23.41 140.08 C7.03 139.04 -9.28 137.42 -25.6 135.73 C-28.66 135.42 -31.73 135.11 -34.8 134.8 C-48.76 133.39 -62.73 131.97 -76.66 130.33 C-81.14 129.89 -85.51 129.86 -90 130 C-90.28 130.52 -90.55 131.04 -90.84 131.58 C-94.32 137.99 -98.22 144.05 -102.25 150.12 C-106.51 156.6 -110.75 163.07 -114.69 169.75 C-119.42 177.76 -124.38 185.61 -129.38 193.44 C-131.08 196.13 -132.75 198.84 -134.41 201.55 C-135.54 203.37 -136.68 205.18 -137.81 207 C-138.33 207.85 -138.84 208.71 -139.37 209.59 C-142.68 214.82 -145 217.27 -151 219 C-154.31 219.31 -154.31 219.31 -157 219 C-157.99 218.01 -157.99 218.01 -159 217 C-158.66 213.36 -156.7 210.75 -154.71 207.77 C-154.02 206.73 -153.34 205.69 -152.63 204.62 C-152.26 204.07 -151.9 203.52 -151.52 202.96 C-149.56 200.04 -147.63 197.1 -145.7 194.17 C-145.3 193.57 -144.91 192.97 -144.5 192.35 C-140.64 186.48 -136.9 180.53 -133.19 174.56 C-132.58 173.58 -131.96 172.59 -131.33 171.58 C-130.13 169.65 -128.93 167.72 -127.74 165.79 C-125.01 161.41 -122.26 157.05 -119.5 152.69 C-119.01 151.91 -118.52 151.14 -118.02 150.34 C-115.94 147.05 -113.85 143.76 -111.74 140.49 C-111.1 139.5 -110.47 138.52 -109.81 137.5 C-109.28 136.69 -108.75 135.87 -108.21 135.03 C-106.86 132.92 -106.86 132.92 -106 130 C-105.34 130 -104.68 130 -104 130 C-104 129.34 -104 128.68 -104 128 C-113.16 126.58 -122.32 125.66 -131.56 124.94 C-132.56 124.86 -133.55 124.78 -134.58 124.7 C-149.7 123.57 -164.81 122.9 -179.98 123.01 C-181.61 123.02 -181.61 123.02 -183.27 123.03 C-187.72 123.07 -192.17 123.11 -196.62 123.17 C-199.93 123.21 -203.24 123.24 -206.54 123.26 C-207.55 123.28 -208.56 123.3 -209.6 123.31 C-211 123.32 -211 123.32 -212.42 123.32 C-213.64 123.34 -213.64 123.34 -214.89 123.35 C-217.48 122.92 -218.36 122 -220 120 C-212.75 113.28 -206.16 112.69 -196.54 112.73 C-195.53 112.73 -194.52 112.73 -193.48 112.73 C-190.19 112.72 -186.91 112.73 -183.62 112.75 C-182.5 112.75 -181.38 112.75 -180.22 112.76 C-161.4 112.81 -142.76 113.53 -124 115 C-121.33 115.2 -118.66 115.39 -115.99 115.58 C-109.66 116.03 -103.33 116.51 -97 117 C-96.59 116.37 -96.18 115.73 -95.75 115.08 C-85.67 99.6 -75.58 84.15 -65 69 C-64.3 68 -64.3 68 -63.59 66.98 C-57.38 58.06 -51.04 49.31 -44.35 40.74 C-42.86 38.82 -41.4 36.89 -39.95 34.95 C-12.74 -1.2 -12.74 -1.2 0 0 Z " fill="#FBFCFD" transform="translate(492,320)"/>
<path d="M0 0 C1.17 -0 2.33 -0.01 3.54 -0.01 C9.54 -0 15.32 0.2 21.25 1.12 C21.25 1.45 21.25 1.78 21.25 2.12 C20.68 2.2 20.1 2.28 19.51 2.37 C-31.9 9.64 -84.77 24.01 -131.4 46.98 C-134.41 48.45 -137.44 49.88 -140.47 51.32 C-154.15 57.82 -167.68 64.46 -180.75 72.12 C-181.62 72.63 -182.48 73.13 -183.37 73.65 C-186.13 75.26 -188.88 76.88 -191.62 78.5 C-192.9 79.25 -192.9 79.25 -194.21 80.02 C-198.22 82.42 -201.52 84.7 -204.75 88.12 C-205.41 88.12 -206.07 88.12 -206.75 88.12 C-206.75 87.47 -206.75 86.81 -206.75 86.12 C-205.06 84.8 -203.28 83.69 -201.48 82.54 C-199.47 80.9 -198.86 79.44 -197.75 77.12 C-192.22 70.65 -185.42 65.36 -178.75 60.12 C-178.08 59.6 -177.4 59.07 -176.71 58.52 C-174.48 56.78 -172.24 55.04 -170 53.31 C-169.29 52.76 -168.58 52.21 -167.85 51.64 C-163.63 48.41 -159.4 45.69 -154.75 43.12 C-152.79 41.88 -150.83 40.63 -148.88 39.38 C-141.15 34.59 -133.02 30.85 -124.75 27.12 C-123.93 26.75 -123.11 26.37 -122.27 25.98 C-120.11 25 -117.93 24.06 -115.75 23.12 C-114.6 22.61 -113.46 22.1 -112.28 21.58 C-84.9 9.63 -55.33 4.13 -25.75 1.12 C-24.32 0.98 -24.32 0.98 -22.87 0.83 C-15.24 0.12 -7.66 -0.03 0 0 Z " fill="#000102" transform="translate(531.75,67.875)"/>
</svg>
